<?xml version="1.0" standalone="no"?>
<!DOCTYPE svg PUBLIC "-//W3C//DTD SVG 20010904//EN"
 "http://www.w3.org/TR/2001/REC-SVG-20010904/DTD/svg10.dtd">
<svg version="1.0" xmlns="http://www.w3.org/2000/svg"
 width="1164.000000pt" height="1024.000000pt" viewBox="0 0 1164.000000 1024.000000"
 preserveAspectRatio="xMidYMid meet">

<g transform="translate(0.000000,1024.000000) scale(0.100000,-0.100000)"
fill="#000000" stroke="none">
<path d="M0 5120 l0 -5120 5820 0 5820 0 0 5120 0 5120 -5820 0 -5820 0 0
-5120z m1840 1615 c365 -208 805 -370 1222 -451 49 -9 96 -23 105 -30 17 -12
18 -46 17 -491 0 -519 -5 -589 -60 -799 -148 -571 -585 -1039 -1250 -1338 -96
-44 -134 -56 -156 -52 -54 11 -284 122 -416 201 -319 190 -581 437 -741 698
-137 224 -221 464 -256 730 -11 91 -15 222 -15 573 0 511 -4 484 76 498 103
19 422 101 534 138 241 79 478 184 715 316 74 42 116 60 130 56 11 -3 54 -25
95 -49z m2332 -996 c140 -30 258 -140 270 -254 l3 -30 -96 -3 -97 -3 -10 30
c-21 60 -90 99 -177 100 -119 1 -196 -80 -165 -174 18 -55 68 -81 230 -121 79
-19 164 -46 191 -59 104 -53 149 -132 149 -260 0 -93 -22 -153 -76 -214 -59
-66 -128 -98 -239 -110 -178 -21 -323 19 -400 111 -32 37 -70 117 -78 165 l-6
32 104 3 105 3 6 -28 c16 -75 113 -125 221 -114 108 11 169 69 159 150 -9 74
-50 100 -245 152 -156 41 -217 70 -265 126 -49 58 -70 125 -64 208 16 215 228
343 480 290z m1618 -73 l0 -84 -76 -4 c-92 -4 -104 -16 -104 -100 l0 -58 90 0
90 0 0 -75 0 -75 -90 0 -90 0 0 -310 0 -310 -95 0 -95 0 0 310 0 309 -57 3
-58 3 -3 73 -3 72 61 0 60 0 0 83 c1 121 27 179 95 215 46 24 82 30 183 31
l92 1 0 -84z m2706 70 c74 -20 149 -63 195 -114 49 -52 96 -150 105 -215 l7
-47 -105 0 -105 0 -6 42 c-13 97 -103 168 -214 168 -82 0 -119 -16 -171 -75
-63 -71 -77 -129 -76 -305 0 -176 18 -235 93 -310 121 -121 317 -70 371 96
l12 34 104 0 c96 0 105 -2 100 -17 -3 -10 -10 -38 -16 -63 -29 -112 -122 -219
-228 -262 -50 -20 -75 -23 -192 -23 -131 0 -137 1 -203 32 -117 55 -203 168
-243 318 -24 91 -29 274 -10 365 39 186 164 333 316 374 70 19 200 20 266 2z
m1934 -541 l0 -545 -90 0 -90 0 -1 33 c-1 17 -4 42 -7 55 -7 23 -7 23 -25 -8
-10 -17 -42 -44 -70 -60 -45 -26 -62 -30 -128 -30 -93 0 -159 29 -219 97 -104
118 -129 359 -55 521 58 126 137 184 262 190 88 5 134 -9 187 -58 l41 -38 -3
194 -3 194 100 0 101 0 0 -545z m-2780 345 l0 -120 80 0 80 0 0 -75 0 -75 -80
0 -80 0 0 -196 c0 -246 8 -266 109 -262 l53 2 0 -80 c0 -91 0 -91 -112 -93
-84 -1 -132 13 -174 50 -58 51 -66 92 -66 351 l0 228 -60 0 -60 0 0 75 0 75
60 0 60 0 0 120 0 120 95 0 95 0 0 -120z m-2594 -119 c28 -12 67 -39 87 -59
63 -65 67 -89 67 -418 l0 -294 -90 0 -90 0 0 50 0 51 -30 -35 c-48 -54 -103
-76 -191 -76 -157 0 -259 95 -259 242 0 48 44 129 84 157 52 35 106 50 219 62
56 7 117 18 135 25 29 12 32 17 32 58 0 82 -65 128 -157 111 -45 -8 -93 -54
-93 -89 l0 -26 -100 0 -99 0 5 33 c21 113 103 198 219 228 59 16 206 4 261
-20z m1256 19 c53 -15 127 -68 165 -118 41 -54 69 -145 78 -250 l8 -82 -263 0
-263 0 5 -45 c12 -101 95 -165 193 -150 36 5 56 16 86 46 l39 39 90 0 c54 0
90 -4 90 -10 0 -25 -47 -107 -80 -140 -20 -20 -59 -47 -86 -61 -43 -21 -63
-24 -164 -24 -96 0 -122 3 -161 21 -141 66 -218 221 -206 414 7 113 35 186 99
255 53 58 86 80 153 101 49 16 167 18 217 4z m803 -19 c28 -12 63 -34 79 -49
32 -30 65 -96 66 -129 0 -22 -3 -23 -87 -23 -87 0 -88 0 -105 30 -20 36 -53
50 -113 50 -77 0 -124 -29 -125 -78 0 -37 41 -69 106 -82 215 -45 292 -81 324
-153 41 -89 20 -197 -50 -267 -59 -60 -122 -80 -244 -80 -188 0 -285 61 -324
203 l-10 37 91 0 c91 0 92 0 109 -29 27 -48 62 -65 135 -64 81 1 117 23 121
75 4 51 -27 71 -158 102 -61 14 -130 35 -155 47 -113 53 -156 178 -101 295 28
59 75 100 149 126 73 26 221 20 292 -11z m2296 -5 c283 -134 286 -596 4 -744
-46 -25 -60 -27 -165 -27 -105 0 -119 2 -165 27 -138 72 -216 233 -202 417 8
106 38 179 99 246 82 90 149 117 283 111 72 -2 101 -8 146 -30z m1592 20 c140
-42 237 -194 237 -372 l0 -74 -260 0 -259 0 5 -32 c11 -58 41 -114 71 -136 67
-48 179 -33 224 29 20 29 22 29 115 29 57 0 94 -4 94 -10 0 -6 -9 -29 -20 -53
-55 -117 -140 -169 -285 -175 -115 -5 -185 13 -252 67 -99 79 -149 210 -140
366 10 183 99 316 241 361 55 17 172 17 229 0z"/>
<path d="M1644 6537 c-315 -176 -664 -308 -1040 -392 -65 -15 -122 -32 -126
-38 -12 -18 -9 -700 2 -818 55 -559 337 -993 857 -1321 121 -76 342 -188 386
-194 64 -10 425 190 620 342 110 87 284 268 359 374 130 184 220 390 270 620
21 100 23 125 23 555 l0 450 -75 18 c-41 9 -115 27 -165 38 -304 71 -735 241
-966 382 l-56 34 -89 -50z m240 -216 c3 -5 -10 -62 -30 -126 -21 -70 -33 -128
-30 -142 6 -22 10 -23 95 -23 139 0 139 1 -41 -202 -84 -95 -169 -192 -189
-216 -36 -42 -53 -51 -64 -33 -3 5 11 64 31 130 46 152 46 151 -81 151 -119 0
-130 10 -78 72 149 178 351 398 365 398 9 0 19 -4 22 -9z m-536 -808 l-3 -68
-52 -5 c-28 -3 -55 -9 -60 -14 -4 -4 -11 -65 -14 -134 -6 -136 -26 -199 -69
-222 -20 -11 -20 -12 10 -41 41 -41 60 -113 60 -228 0 -53 4 -103 10 -111 5
-8 31 -17 62 -20 l53 -5 3 -67 3 -68 -68 0 c-160 1 -213 70 -213 276 0 56 -5
95 -15 114 -16 32 -61 60 -95 60 -18 0 -20 6 -20 70 0 44 4 70 11 70 6 0 26 7
44 16 58 27 68 54 76 195 7 132 17 165 62 207 32 30 68 40 150 41 l68 1 -3
-67z m956 53 c79 -33 106 -96 106 -246 0 -50 5 -101 11 -113 20 -38 61 -76 90
-82 28 -6 29 -8 29 -71 0 -53 -3 -66 -17 -70 -92 -28 -113 -65 -113 -196 0
-112 -11 -158 -51 -203 -34 -38 -103 -59 -179 -53 l-45 3 0 65 0 65 50 5 c28
3 55 9 61 12 7 5 13 57 17 130 6 137 14 169 59 215 29 30 29 31 10 42 -42 23
-64 92 -70 226 -3 74 -10 129 -16 134 -6 6 -34 11 -61 13 l-50 3 -3 54 c-2 29
-1 60 2 67 7 19 125 19 170 0z m-417 -241 c3 -9 -21 -75 -54 -148 -33 -73 -80
-176 -104 -230 l-44 -97 -75 2 c-60 2 -75 6 -73 18 2 19 191 440 205 458 16
19 137 16 145 -3z"/>
<path d="M10020 5283 c-37 -14 -74 -50 -91 -88 -28 -64 -35 -168 -15 -244 19
-76 44 -113 90 -135 75 -35 157 -9 199 62 42 72 38 274 -7 342 -37 56 -117 85
-176 63z"/>
<path d="M4920 4983 c-71 -7 -135 -24 -152 -40 -29 -26 -24 -94 8 -124 21 -20
36 -24 84 -24 91 0 149 53 158 144 l5 51 -34 -2 c-19 0 -50 -3 -69 -5z"/>
<path d="M6135 5287 c-38 -18 -60 -43 -80 -90 -33 -78 -35 -77 145 -77 l160 0
0 23 c0 33 -41 108 -72 130 -34 25 -113 32 -153 14z"/>
<path d="M9175 5272 c-72 -46 -98 -105 -99 -222 0 -104 20 -166 70 -209 41
-37 70 -45 131 -38 59 6 92 31 123 93 22 43 25 62 25 149 0 84 -4 108 -24 147
-31 64 -71 91 -140 96 -42 2 -63 -2 -86 -16z"/>
<path d="M10830 5289 c-51 -21 -100 -91 -100 -144 l0 -25 161 0 161 0 -7 38
c-8 48 -33 90 -67 115 -31 23 -111 32 -148 16z"/>
</g>
</svg>
